<?xml version="1.0" standalone="no"?>
<!DOCTYPE svg PUBLIC "-//W3C//DTD SVG 20010904//EN"
 "http://www.w3.org/TR/2001/REC-SVG-20010904/DTD/svg10.dtd">
<svg version="1.0" xmlns="http://www.w3.org/2000/svg"
 width="256.000000pt" height="256.000000pt" viewBox="0 0 256.000000 256.000000"
 preserveAspectRatio="xMidYMid meet">
<metadata>
Created by potrace 1.16, written by Peter Selinger 2001-2019
</metadata>
<g transform="translate(0.000000,256.000000) scale(0.100000,-0.100000)"
fill="#000000" stroke="none">
<path d="M465 2449 c-4 -6 -20 -9 -36 -7 -31 5 -36 -1 -17 -20 10 -10 0 -25
-45 -69 l-57 -58 -59 59 c-33 33 -57 64 -54 69 4 6 -5 2 -18 -8 l-24 -18 65
-63 65 -63 -60 -60 -59 -61 -23 22 c-22 21 -23 21 -23 2 0 -11 5 -25 11 -31 8
-8 7 -17 -2 -31 -17 -28 -4 -40 19 -19 18 16 22 14 75 -42 31 -32 59 -56 62
-53 3 3 5 3 5 0 0 -3 -28 -33 -62 -66 l-63 -61 -22 21 -23 21 0 -26 c0 -14 4
-29 10 -32 6 -4 5 -13 -2 -25 -15 -24 -3 -38 21 -23 16 10 26 3 75 -46 l56
-57 -58 -57 -58 -57 -23 23 c-19 17 -23 18 -18 5 4 -10 1 -18 -5 -18 -6 0 -4
-8 6 -19 14 -16 15 -20 2 -30 -8 -7 -12 -19 -9 -27 5 -13 8 -13 28 0 21 14 25
12 79 -43 l56 -57 -58 -57 -58 -57 -20 21 -21 21 -6 -21 c-3 -11 1 -25 9 -31
10 -9 11 -16 1 -30 -14 -24 -2 -38 22 -23 16 10 26 3 75 -46 l56 -57 -58 -57
c-52 -51 -60 -56 -72 -42 -10 12 -16 13 -27 4 -11 -10 -11 -15 2 -29 11 -12
13 -20 6 -25 -6 -3 -11 -18 -11 -32 l0 -26 23 21 23 22 59 -60 59 -60 -59 -60
-59 -60 -23 22 c-22 21 -23 21 -23 2 0 -11 5 -25 12 -32 9 -9 7 -16 -7 -32
-14 -15 -15 -20 -4 -20 11 0 11 -2 -1 -10 -8 -5 -11 -10 -6 -10 6 0 19 9 31
20 l21 20 59 -60 59 -60 -59 -60 -59 -60 -22 21 c-27 25 -38 12 -19 -24 11
-22 11 -28 0 -37 -11 -9 -12 -15 -2 -25 10 -11 15 -11 28 1 13 12 22 6 72 -44
l57 -58 -58 -57 c-32 -31 -63 -57 -69 -57 -20 0 -4 -26 23 -39 20 -9 25 -9 21
1 -3 7 21 39 51 71 l56 57 57 -56 c55 -55 57 -58 42 -80 -21 -33 -6 -51 22
-24 19 18 24 19 34 6 6 -8 21 -12 32 -9 l20 6 -20 21 -21 22 60 59 60 60 57
-57 57 -57 -24 -27 c-19 -20 -21 -26 -7 -21 10 4 17 2 17 -5 0 -6 9 -3 19 6
12 11 25 15 33 10 7 -5 22 -10 32 -11 19 -3 19 -2 -2 20 l-22 23 60 59 60 59
60 -59 c55 -55 58 -60 44 -76 -23 -25 -8 -45 17 -23 18 16 20 16 38 0 10 -9
25 -14 35 -10 15 6 15 9 -6 31 l-22 24 57 57 57 57 60 -60 60 -59 -21 -22 -20
-21 20 -6 c11 -3 26 1 32 9 8 10 15 11 24 4 6 -5 16 -6 20 -2 5 4 5 2 1 -5 -9
-17 7 -23 21 -8 9 10 8 17 -8 31 -19 17 -19 19 38 76 l57 58 58 -57 c54 -53
56 -58 41 -75 -14 -16 -14 -18 1 -24 9 -3 22 -1 30 5 10 8 16 8 25 -3 6 -8 21
-12 32 -9 l20 6 -20 21 -21 22 58 57 58 57 57 -58 58 -58 -21 -19 c-19 -17
-19 -20 -5 -28 11 -6 22 -4 35 8 12 11 20 13 25 5 3 -5 11 -8 16 -4 5 3 9 2 8
-3 -3 -19 2 -23 15 -11 12 11 12 16 -5 33 -19 21 -18 21 41 80 l60 59 60 -59
60 -59 -20 -21 c-11 -12 -20 -24 -20 -27 0 -10 27 -3 44 11 14 12 19 11 34 -1
9 -9 23 -13 30 -11 10 4 8 11 -7 27 l-21 22 60 59 60 59 65 -64 c54 -53 65
-61 71 -46 5 13 -9 33 -52 77 l-58 59 54 55 c44 44 59 54 79 50 14 -3 20 -2
14 1 -7 3 -13 10 -13 15 0 6 5 7 11 4 6 -4 5 3 -3 14 -11 18 -11 23 2 31 8 5
10 10 5 10 -6 0 -15 -4 -21 -10 -6 -6 -30 11 -69 50 l-59 60 54 55 c39 40 59
53 73 49 16 -5 18 0 15 39 -2 36 -6 43 -16 34 -10 -8 -26 3 -70 46 l-57 57 55
55 c30 30 60 53 67 50 7 -2 13 3 14 13 0 9 2 27 3 40 2 17 -1 21 -14 17 -10
-3 -35 14 -70 50 l-54 55 59 60 c32 32 62 57 66 55 4 -3 9 4 12 15 3 10 0 21
-7 23 -7 3 -6 10 4 23 14 18 14 18 -3 5 -17 -13 -24 -9 -78 45 l-59 59 59 59
c49 48 63 57 74 47 12 -9 16 -8 21 4 6 17 -13 67 -24 60 -3 -2 -33 23 -66 56
l-59 59 57 57 c51 51 58 55 74 42 16 -12 17 -12 11 4 -3 9 -2 17 3 17 6 0 5
11 -2 25 -6 14 -16 25 -22 25 -7 0 -36 25 -66 55 l-55 55 57 57 c47 47 59 54
72 44 12 -10 15 -9 18 6 6 26 -12 73 -25 67 -7 -2 -37 20 -67 51 l-54 55 57
58 c31 32 57 61 57 65 0 22 -41 1 -87 -45 l-53 -53 -57 57 c-48 49 -55 59 -44
72 11 14 11 16 -5 17 -11 1 -23 1 -28 0 -4 -1 -13 3 -20 8 -7 6 -18 6 -26 1
-12 -7 -12 -11 0 -25 12 -14 7 -23 -43 -73 l-57 -57 -60 60 c-54 54 -58 60
-44 76 13 15 13 17 0 22 -9 4 -18 2 -21 -3 -3 -5 -20 -7 -37 -3 -29 6 -30 5
-18 -17 11 -21 7 -27 -44 -79 l-56 -56 -59 59 c-48 47 -58 63 -51 77 7 12 5
19 -5 23 -8 3 -17 1 -21 -5 -4 -6 -12 -5 -22 3 -13 11 -14 11 -8 -1 7 -10 3
-12 -15 -6 -23 7 -23 7 -7 -12 17 -18 15 -21 -42 -78 l-60 -60 -57 57 c-55 56
-56 58 -39 77 17 19 17 19 -5 14 -17 -5 -20 -3 -14 8 6 11 5 11 -5 2 -8 -7
-26 -9 -44 -6 -30 6 -31 5 -14 -14 17 -18 15 -21 -42 -78 l-60 -59 -55 54
c-57 56 -65 73 -41 87 9 5 -7 8 -40 8 -56 0 -62 -3 -42 -23 10 -10 0 -25 -45
-70 l-57 -57 -57 57 c-43 43 -54 60 -46 70 15 18 -9 42 -25 26 -8 -8 -15 -8
-24 -1 -18 15 -42 -9 -25 -26 9 -9 -3 -26 -46 -68 l-57 -58 -59 59 c-49 48
-58 63 -50 77 10 20 -5 37 -16 18z m42 -236 l-57 -58 -60 60 -60 59 57 58 58
58 60 -60 60 -60 -58 -57z m843 2 l-60 -60 -57 58 -58 57 60 60 59 60 58 -57
58 -58 -60 -60z m285 -5 l-60 -60 -60 60 -59 60 59 60 60 60 60 -60 60 -60
-60 -60z m282 3 l-57 -58 -60 60 -60 59 57 58 58 58 60 -60 60 -60 -58 -57z
m-1127 112 l55 -55 -58 -58 -57 -57 -57 57 -58 58 55 55 c30 30 57 55 60 55 3
0 30 -25 60 -55z m280 0 l55 -55 -58 -58 -57 -57 -57 57 -58 58 55 55 c30 30
57 55 60 55 3 0 30 -25 60 -55z m1130 0 l55 -55 -58 -58 -57 -57 -57 57 -58
58 55 55 c30 30 57 55 60 55 3 0 30 -25 60 -55z m-1810 -230 c-19 -19 -39 -35
-45 -35 -6 0 -20 -7 -31 -16 -18 -15 -18 -15 3 -5 12 6 86 12 165 13 79 1 125
3 102 5 -31 3 -49 13 -75 39 l-33 34 57 58 57 57 57 -57 57 -58 -44 -45 -44
-45 -141 0 c-115 0 -145 -3 -165 -17 -14 -9 -22 -13 -19 -9 4 4 -19 31 -50 61
l-56 54 60 61 60 60 59 -60 60 -60 -34 -35z m1105 -25 l-60 -60 -60 60 -59 60
59 60 60 60 60 -60 60 -60 -60 -60z m280 0 l-60 -60 -60 60 -59 60 59 60 60
60 60 -60 60 -60 -60 -60z m-845 115 l55 -55 -58 -58 -57 -57 -57 57 -58 58
55 55 c30 30 57 55 60 55 3 0 30 -25 60 -55z m280 0 l55 -55 -58 -58 -57 -57
-57 57 -58 58 55 55 c30 30 57 55 60 55 3 0 30 -25 60 -55z m850 0 l55 -55
-58 -58 -57 -57 -57 57 -58 58 55 55 c30 30 57 55 60 55 3 0 30 -25 60 -55z
m280 0 l55 -55 -58 -58 -57 -57 -57 57 -58 58 55 55 c30 30 57 55 60 55 3 0
30 -25 60 -55z m-705 -255 l-60 -60 -60 60 -59 60 59 60 60 60 60 -60 60 -60
-60 -60z m-845 114 l55 -55 -47 -45 c-27 -25 -48 -53 -49 -62 0 -9 -7 6 -14
33 -9 32 -26 61 -47 81 l-33 30 34 37 c19 20 37 37 41 37 3 0 30 -25 60 -56z
m280 1 l55 -55 -58 -58 -57 -57 -57 57 -58 58 55 55 c30 30 57 55 60 55 3 0
30 -25 60 -55z m283 -3 l57 -58 -58 -57 -58 -57 -59 60 -59 60 54 55 c30 30
57 55 60 55 3 0 31 -26 63 -58z m567 3 l54 -55 -59 -60 -59 -60 -58 57 -58 57
57 58 c32 32 60 58 63 58 3 0 30 -25 60 -55z m280 0 l55 -55 -58 -58 -57 -57
-57 57 -58 58 55 55 c30 30 57 55 60 55 3 0 30 -25 60 -55z m-1270 -140 l54
-55 -39 -40 c-51 -52 -94 -55 -142 -8 -18 18 -33 39 -33 47 0 14 87 111 100
111 3 0 30 -25 60 -55z m282 -2 l58 -57 -37 -38 c-31 -32 -44 -38 -78 -38 -35
0 -47 6 -80 40 l-39 40 54 55 c30 30 57 55 59 55 3 0 31 -26 63 -57z m280 0
l58 -57 -37 -38 c-31 -32 -44 -38 -78 -38 -35 0 -47 6 -80 40 l-39 40 54 55
c30 30 57 55 59 55 3 0 31 -26 63 -57z m288 2 l54 -55 -39 -40 c-33 -34 -46
-40 -79 -40 -33 0 -47 7 -78 37 l-38 37 57 58 c32 32 60 58 63 58 3 0 30 -25
60 -55z m280 0 l54 -55 -39 -40 c-33 -34 -46 -40 -79 -40 -33 0 -47 7 -78 37
l-38 37 57 58 c32 32 60 58 63 58 3 0 30 -25 60 -55z m280 0 l55 -55 -58 -58
-57 -57 -57 57 -58 58 55 55 c30 30 57 55 60 55 3 0 30 -25 60 -55z m-2023 2
c-1 -6 7 -12 18 -14 l20 -3 -20 9 c-18 9 -17 10 8 10 16 1 26 -3 22 -9 -3 -5
0 -10 8 -10 8 0 22 -9 32 -20 18 -20 18 -22 -40 -80 l-59 -60 -58 57 -58 57
42 43 c34 35 44 40 56 30 13 -10 14 -9 2 13 -13 25 -13 25 8 6 12 -10 20 -23
19 -29z m287 -14 c11 -39 26 -137 21 -141 -3 -3 -5 3 -6 14 0 14 -2 15 -6 4
-16 -44 -25 -42 -85 16 l-58 58 22 23 c13 13 34 23 52 24 l31 1 -30 8 c-28 7
-28 8 12 9 32 1 43 -3 47 -16z m-94 -128 l54 -55 -59 -60 -59 -60 -58 57 -58
57 57 58 c32 32 60 58 63 58 3 0 30 -25 60 -55z m-147 -257 l-57 -58 -58 57
-58 57 57 58 57 58 58 -57 58 -57 -57 -58z m254 150 c13 -12 23 -33 24 -47 l1
-26 7 25 c6 21 9 18 15 -24 7 -48 7 -49 -35 -92 l-43 -44 -58 57 -58 57 57 58
c32 32 59 58 62 58 3 0 15 -10 28 -22z m1726 -36 l57 -58 -60 -59 c-71 -70
-89 -67 -72 12 10 46 5 101 -12 134 -4 8 0 5 9 -6 16 -19 16 -19 10 8 -4 15
-3 27 2 27 5 0 34 -26 66 -58z m-1524 -29 c1 14 11 17 64 17 53 0 67 -4 85
-23 l22 -23 -60 -59 c-50 -50 -61 -56 -74 -45 -9 7 -16 22 -17 34 -1 19 -2 18
-8 -4 -5 -19 -9 -11 -19 41 -13 73 -14 108 -2 69 5 -17 8 -19 9 -7z m433 -7
c16 -23 16 -24 -40 -79 l-58 -57 -59 60 c-58 58 -58 60 -40 80 15 17 30 20 99
20 73 -1 83 -3 98 -24z m278 2 c19 -23 19 -23 -38 -81 l-56 -57 -58 57 c-56
55 -56 56 -40 79 15 21 25 23 95 24 70 0 81 -3 97 -22z m280 0 c19 -23 19 -23
-38 -81 l-56 -57 -58 57 c-56 55 -56 56 -40 79 15 21 25 23 95 24 70 0 81 -3
97 -22z m285 2 c18 -20 18 -22 -40 -80 l-59 -60 -58 57 -58 57 22 23 c19 20
31 23 98 23 65 0 80 -3 95 -20z m-1592 -222 l-57 -58 -58 57 -58 57 57 58 57
58 58 -57 58 -57 -57 -58z m570 114 l57 -58 -60 -59 -60 -59 -60 59 -60 59 57
58 c32 32 60 58 63 58 3 0 31 -26 63 -58z m280 -114 l-57 -58 -58 57 -58 57
57 58 57 58 58 -57 58 -57 -57 -58z m280 0 l-57 -58 -58 57 -58 57 57 58 57
58 58 -57 58 -57 -57 -58z m280 0 l-57 -58 -58 57 -58 57 57 58 57 58 58 -57
58 -57 -57 -58z m-1550 -140 l-57 -58 -58 57 -58 57 57 58 57 58 58 -57 58
-57 -57 -58z m284 -5 l-57 -58 -60 60 -60 59 57 58 58 58 60 -60 60 -60 -58
-57z m286 119 l57 -58 -55 -54 c-30 -29 -56 -52 -58 -49 -5 5 -37 192 -36 205
1 5 5 -2 9 -16 l8 -25 1 28 c1 15 5 27 9 27 4 0 33 -26 65 -58z m277 -117
l-60 -60 -57 58 -58 57 60 60 59 60 58 -57 58 -58 -60 -60z m283 3 l-57 -58
-58 57 -58 57 57 58 57 58 58 -57 58 -57 -57 -58z m280 0 l-57 -58 -58 57 -58
57 57 58 57 58 58 -57 58 -57 -57 -58z m298 82 c0 -11 3 -9 10 5 10 22 11 26
-7 -70 -6 -32 -9 -36 -15 -20 -5 14 -8 16 -8 4 -1 -8 -12 -26 -26 -39 l-25
-24 -60 59 -60 59 57 58 57 58 38 -37 c21 -20 38 -44 39 -53z m272 32 l57 -58
-60 -59 -60 -60 -37 37 -36 37 13 58 c11 49 42 102 60 103 3 0 31 -26 63 -58z
m-1836 -259 l-57 -58 -60 60 -60 59 57 58 58 58 60 -60 60 -60 -58 -57z m239
-41 c-15 -15 -21 -12 -76 43 l-60 59 47 48 c33 34 49 44 55 35 5 -8 8 -3 9 13
1 14 10 -22 21 -78 19 -96 19 -105 4 -120z m324 43 l-60 -60 -57 58 -58 57 60
60 59 60 58 -57 58 -58 -60 -60z m280 0 l-60 -60 -57 58 -58 57 60 60 59 60
58 -57 58 -58 -60 -60z m283 3 l-57 -58 -58 57 -58 57 57 58 57 58 58 -57 58
-57 -57 -58z m284 -5 l-57 -58 -60 60 -60 59 57 58 58 58 60 -60 60 -60 -58
-57z m-1550 -140 l-57 -58 -60 60 -60 59 57 58 58 58 60 -60 60 -60 -58 -57z
m280 0 l-57 -58 -60 60 -60 59 57 58 58 58 60 -60 60 -60 -58 -57z m563 2
l-60 -60 -57 58 -58 57 60 60 59 60 58 -57 58 -58 -60 -60z m280 0 l-60 -60
-57 58 -58 57 60 60 59 60 58 -57 58 -58 -60 -60z m287 -2 l-57 -58 -60 60
-60 59 57 58 58 58 60 -60 60 -60 -58 -57z m253 148 c0 7 2 10 5 7 3 -2 -6
-52 -19 -109 -13 -57 -25 -93 -26 -79 -1 14 -4 19 -7 12 -4 -10 -21 1 -54 34
l-49 48 57 59 58 58 18 -22 c9 -12 17 -15 17 -8z m310 -36 l55 -55 -58 -58
-57 -57 -57 57 -58 58 55 55 c30 30 57 55 60 55 3 0 30 -25 60 -55z m-1833
-252 l-57 -58 -60 60 -60 59 57 58 58 58 60 -60 60 -60 -58 -57z m881 40 c-19
-20 -31 -23 -98 -23 -65 0 -80 3 -95 20 -18 20 -18 22 40 80 l59 60 58 -57 58
-57 -22 -23z m287 -3 c-15 -17 -30 -20 -100 -20 -70 0 -85 3 -100 20 -18 20
-18 22 40 80 l60 60 59 -59 c59 -59 60 -60 41 -81z m280 0 c-15 -17 -30 -20
-93 -20 -64 0 -79 3 -99 22 l-23 22 57 58 58 58 59 -59 c59 -59 60 -60 41 -81z
m-1194 107 c18 -15 28 -36 33 -67 4 -25 9 -56 12 -70 2 -14 1 -19 -2 -12 -5
10 -16 5 -40 -19 l-34 -33 -57 57 -58 57 55 55 c30 30 57 55 60 55 3 -1 17
-11 31 -23z m309 -32 c53 -53 53 -55 35 -75 -14 -16 -30 -20 -81 -20 -34 0
-65 5 -67 10 -3 6 -4 5 -3 -2 2 -9 28 -15 77 -19 l74 -5 -71 -2 c-79 -2 -90 4
-100 57 -6 28 -2 37 32 72 21 21 41 39 44 39 3 0 30 -25 60 -55z m1083 28 c-2
-20 -1 -23 5 -10 6 15 13 11 52 -28 l44 -45 -56 -56 c-60 -61 -83 -64 -73 -11
l5 32 -15 -30 c-8 -16 -13 -21 -10 -10 2 11 11 52 20 90 9 39 18 76 20 83 8
21 12 13 8 -15z m-1788 -283 l-60 -60 -60 60 -59 60 59 60 60 60 60 -60 60
-60 -60 -60z m285 115 l55 -55 -58 -58 -57 -57 -57 57 -58 58 55 55 c30 30 57
55 60 55 3 0 30 -25 60 -55z m1690 0 l55 -55 -58 -58 -57 -57 -57 57 -58 58
55 55 c30 30 57 55 60 55 3 0 30 -25 60 -55z m-1830 -140 l54 -55 -59 -60 -59
-60 -58 57 -58 57 57 58 c32 32 60 58 63 58 3 0 30 -25 60 -55z m280 0 l55
-55 -58 -58 -57 -57 -57 57 -58 58 55 55 c30 30 57 55 60 55 3 0 30 -25 60
-55z m1410 0 l55 -55 -58 -58 -57 -57 -57 57 -58 58 55 55 c30 30 57 55 60 55
3 0 30 -25 60 -55z m-837 -13 l47 -48 -58 -57 -58 -57 -59 60 -59 60 44 45
c59 60 82 59 143 -3z m287 3 l44 -45 -59 -60 -60 -60 -60 60 -59 60 44 45 c60
61 90 61 150 0z m279 1 c46 -47 50 -82 5 -47 -41 32 -79 35 -128 11 -46 -22
-76 -66 -76 -112 0 -31 25 -78 53 -97 27 -20 107 -42 128 -36 8 3 26 -6 39
-20 l24 -25 -59 -60 -59 -60 -58 57 -58 57 32 33 c27 28 29 33 14 39 -9 4 -28
23 -41 43 -14 19 -25 32 -25 27 0 -4 10 -21 21 -38 l21 -29 -23 -25 -23 -24
-58 57 -58 57 57 58 c32 32 64 57 73 55 8 -1 15 5 15 15 0 10 20 38 45 63 58
59 82 59 139 1z m-1559 -131 l54 -55 -59 -60 -59 -60 -58 57 -58 57 57 58 c32
32 60 58 63 58 3 0 30 -25 60 -55z m280 0 l54 -55 -59 -60 -59 -60 -58 57 -58
57 57 58 c32 32 60 58 63 58 3 0 30 -25 60 -55z m247 33 c13 -12 23 -33 24
-47 l1 -26 8 25 c8 25 8 25 9 2 1 -13 8 -37 18 -55 16 -31 15 -31 -2 -17 -11
8 -16 10 -12 4 3 -6 -12 -28 -34 -50 l-39 -38 -57 57 -58 57 55 55 c30 30 56
55 59 55 3 0 15 -10 28 -22z m596 -36 l57 -58 -58 -57 -58 -57 -59 60 -59 60
54 55 c30 30 57 55 60 55 3 0 31 -26 63 -58z m567 3 l54 -55 -59 -60 -60 -61
-27 30 c-14 16 -29 26 -33 23 -4 -4 5 11 20 33 22 33 26 48 22 87 -2 26 0 45
5 42 4 -3 8 0 8 5 0 21 16 11 70 -44z m283 -3 l57 -58 -58 -57 -58 -57 -59 60
-59 60 54 55 c30 30 57 55 60 55 3 0 31 -26 63 -58z m-1833 -137 l54 -55 -59
-60 -59 -60 -58 57 -58 57 57 58 c32 32 60 58 63 58 3 0 30 -25 60 -55z m280
0 l54 -55 -59 -60 -59 -60 -58 57 -58 57 57 58 c32 32 60 58 63 58 3 0 30 -25
60 -55z m563 -3 l57 -58 -58 -57 -58 -57 -59 60 -59 60 54 55 c30 30 57 55 60
55 3 0 31 -26 63 -58z m280 -114 l-57 -58 -58 57 -58 57 57 58 57 58 58 -57
58 -57 -57 -58z m570 114 l57 -58 -60 -59 -60 -59 -60 59 -60 59 57 58 c32 32
60 58 63 58 3 0 31 -26 63 -58z m-1138 -2 c6 0 23 -13 38 -28 l27 -28 -58 -57
-58 -57 -59 60 -59 60 34 35 c19 19 40 35 48 35 7 0 11 4 8 9 -3 5 11 0 31
-10 21 -11 42 -19 48 -19z"/>
</g>
</svg>
