<?xml version="1.0" standalone="no"?>
<!DOCTYPE svg PUBLIC "-//W3C//DTD SVG 20010904//EN"
 "http://www.w3.org/TR/2001/REC-SVG-20010904/DTD/svg10.dtd">
<svg version="1.0" xmlns="http://www.w3.org/2000/svg"
 width="512.000000pt" height="512.000000pt" viewBox="0 0 512.000000 512.000000"
 preserveAspectRatio="xMidYMid meet">
<metadata>
Created by potrace 1.16, written by Peter Selinger 2001-2019
</metadata>
<g transform="translate(0.000000,512.000000) scale(0.100000,-0.100000)"
fill="#000000" stroke="none">
<path d="M346 4509 c-28 -33 -34 -85 -16 -120 26 -47 46 -49 433 -49 l363 0
12 -62 c7 -35 23 -121 37 -193 73 -389 496 -2593 501 -2607 3 -10 17 -27 31
-38 25 -20 36 -20 1255 -20 l1230 0 29 29 c40 40 41 106 3 142 l-26 24 -1171
5 -1171 5 -33 170 c-17 94 -34 182 -37 197 l-5 28 1289 2 1290 3 24 25 c23 23
43 110 221 982 107 526 195 971 195 987 0 17 -11 42 -26 60 l-26 31 -1683 0
-1683 0 -5 23 c-3 12 -20 97 -37 189 -27 142 -36 171 -57 193 l-26 25 -442 0
-443 0 -26 -31z m4224 -606 c0 -8 -328 -1615 -337 -1650 l-5 -23 -1234 0
c-679 0 -1234 3 -1234 6 0 6 -328 1617 -337 1652 l-5 22 1576 0 c867 0 1576
-3 1576 -7z"/>
<path d="M2190 1141 c-123 -40 -199 -146 -200 -277 0 -124 71 -229 183 -271
41 -15 163 -15 204 0 66 25 119 73 152 137 73 146 18 318 -124 393 -44 22
-170 33 -215 18z"/>
<path d="M3760 1133 c-66 -24 -144 -106 -164 -173 -44 -148 17 -295 149 -356
73 -34 182 -34 253 2 100 50 156 143 156 259 0 119 -51 202 -156 254 -51 26
-73 31 -127 30 -36 0 -86 -8 -111 -16z"/>
</g>
</svg>
